<?xml version="1.0" encoding="UTF-8"?>
<svg width="1280px" height="1280px" viewBox="0 0 1280 1280" version="1.1" xmlns="http://www.w3.org/2000/svg" xmlns:xlink="http://www.w3.org/1999/xlink">
    <title>logo-1280-2</title>
    <defs>
        <path d="M628.581256,1077.51149 C720.160161,1077.51149 805.183356,1049.43199 875.517374,1001.40969 C892.142778,1018.35528 908.768182,1035.30087 925.393587,1052.24646 C940.388169,1067.52982 964.933291,1067.76393 980.216651,1052.76934 C980.243467,1052.74303 980.270244,1052.71669 980.296984,1052.6903 L1041.88575,991.912862 C1057.12546,976.873914 1057.2882,952.328215 1042.24925,937.088509 C1042.0797,936.916692 1041.90855,936.746463 1041.73581,936.577843 C1024.66981,919.918233 1007.6038,903.258623 990.537796,886.599012 C1038.87847,816.080429 1067.16251,730.722447 1067.16251,638.755744 C1067.16251,396.437638 870.802995,200 628.581256,200 C386.359517,200 190,396.437638 190,638.755744 C190,881.073851 386.359517,1077.51149 628.581256,1077.51149 Z" id="path-1"></path>
        <linearGradient x1="80.2290373%" y1="111.133148%" x2="19.7709627%" y2="-11.1331481%" id="linearGradient-3">
            <stop stop-color="#0063FF" offset="0%"></stop>
            <stop stop-color="#00C8DE" offset="100%"></stop>
        </linearGradient>
    </defs>
    <g id="logo-1280-2" stroke="none" stroke-width="1" fill="none" fill-rule="evenodd">
        <mask id="mask-2" fill="white">
            <use xlink:href="#path-1"></use>
        </mask>
        <use id="Oval" fill="#D8D8D8" opacity="0" xlink:href="#path-1"></use>
        <path d="M643.802275,147.960638 C923.170897,147.960638 1149.64391,374.523755 1149.64391,654.003523 L1011.27228,654.032725 C1011.68718,623.642471 1009.02,593.116978 1004.21907,562.170515 C1000.79809,559.143983 997.461842,556.42903 994.176369,553.924167 L984.43829,546.938364 L955.013461,527.454928 L944.455537,519.422008 L933.183065,509.604985 C917.586144,495.055584 899.540202,474.124762 876.871004,440.317271 L857.577178,410.513293 L828.514204,365.202276 C782.825694,295.065502 748.76292,252.242697 694.478289,242.824375 C670.813544,238.29911 663.236089,270.055477 671.745922,338.093475 L675.417377,363.613389 C567.28076,363.183554 490.513539,380.236711 445.115713,414.772861 C399.717888,449.309011 376.99196,494.262117 376.937931,549.632178 C303.833152,539.366566 261.067346,556.704908 248.640511,601.647203 C230.000259,669.060646 253.551998,804.417735 328.704831,882.26565 C403.857665,960.113565 493.929507,1019.02348 643.802275,1019.02348 L643.802275,1160.04641 C364.433653,1160.04641 137.960638,933.483291 137.960638,654.003523 C137.960638,374.523755 364.433653,147.960638 643.802275,147.960638 Z M1145.72282,717.319297 C1135.58396,798.579278 1106.18596,873.854344 1062.24297,938.428461 L1129.98484,1006.19463 C1142.3313,1018.54601 1142.3313,1038.57155 1129.98484,1050.92292 L1040.56383,1140.37951 C1028.21736,1152.73089 1008.19978,1152.73089 995.853319,1140.37951 L928.1141,1072.6107 C863.565663,1116.57116 788.320534,1145.98086 707.092869,1156.12376 L707.092869,1012.93432 C876.871004,983.606151 973.427639,831.412997 993.416989,767.920312 C998.744683,750.997819 1002.75854,734.14365 1005.62056,717.308995 L1145.72282,717.319297 Z M338.43018,601.87113 C334.316203,625.274826 290.808775,665.103325 278.557537,665.103325 C266.306298,665.103325 262.688237,644.229906 264.849426,617.275725 C267.010614,590.321544 276.705089,574.765412 308.79874,571.370803 C338.080917,568.608786 342.544157,578.467434 338.43018,601.87113 Z M558.441499,445.260833 C616.061277,445.260833 662.771336,491.989476 662.771336,549.632178 C662.771336,607.27488 616.061277,654.003523 558.441499,654.003523 C500.82172,654.003523 454.111661,607.27488 454.111661,549.632178 C454.111661,491.989476 500.82172,445.260833 558.441499,445.260833 Z M520.503376,514.84173 C490.82046,514.84173 466.757702,538.914061 466.757702,568.608786 C466.757702,598.303512 490.82046,622.375843 520.503376,622.375843 C550.186292,622.375843 574.24905,598.303512 574.24905,568.608786 C574.24905,538.914061 550.186292,514.84173 520.503376,514.84173 Z" id="Path" fill="url(#linearGradient-3)" fill-rule="nonzero" mask="url(#mask-2)"></path>
    </g>
</svg>